<svg fill="#000000" viewBox="2 2 20 16" id="fish-with-code" data-name="sleepyfish" xmlns="http://www.w3.org/2000/svg" class="icon line-color" width="32" height="32">
    <g id="SleepyFish_bgCarrier" stroke-width="0"></g>
    <g id="SleepyFish_tracerCarrier" stroke-linecap="round" stroke-linejoin="round"></g>
    <g id="SleepyFish_iconCarrier">
        <path id="primary" d="M14.5,7A9.93,9.93,0,0,0,8.1,9.74,4.83,4.83,0,0,0,6.77,8.55,3.65,3.65,0,0,0,3,8.51,4.14,4.14,0,0,0,5.08,12,4.14,4.14,0,0,0,3,15.49a3.65,3.65,0,0,0,3.77,0A4.83,4.83,0,0,0,8.1,14.26,9.93,9.93,0,0,0,14.5,17c5,0,6.5-5,6.5-5S19.5,7,14.5,7Z" style="fill: none; stroke: #d9d9d9; stroke-linecap: round; stroke-linejoin: round; stroke-width: 1.67;"></path>
        <g transform="translate(14, 12)" style="stroke: #d9d9d9; stroke-linecap: round; stroke-linejoin: round; stroke-width: 1.420; fill: none;">
            <path d="M-1.8, -1.5 L-3.2, 0 L-1.8, 1.5"></path>
            <path d="M1.8, -1.5 L3.2, 0 L1.8, 1.5"></path>
        </g>
    </g>
</svg>